<?xml version="1.0" encoding="utf-8"?>
<!-- Generator: Adobe Illustrator 16.0.0, SVG Export Plug-In . SVG Version: 6.00 Build 0)  -->
<!DOCTYPE svg PUBLIC "-//W3C//DTD SVG 1.1//EN" "http://www.w3.org/Graphics/SVG/1.1/DTD/svg11.dtd">
<svg version="1.1" id="Layer_1" xmlns="http://www.w3.org/2000/svg" xmlns:xlink="http://www.w3.org/1999/xlink" x="0px" y="0px"
	 width="26px" height="20.429px" viewBox="0 0 26 20.429" enable-background="new 0 0 26 20.429" xml:space="preserve">
<path d="M3.714,14.856c-0.513,0-0.95-0.181-1.313-0.543C2.039,13.95,1.857,13.513,1.857,13s0.181-0.95,0.544-1.313
	s0.8-0.544,1.313-0.544s0.95,0.182,1.313,0.544s0.544,0.8,0.544,1.313s-0.181,0.95-0.544,1.313
	C4.665,14.676,4.227,14.856,3.714,14.856z M6.5,8.357c-0.513,0-0.95-0.181-1.313-0.544S4.643,7.013,4.643,6.5
	s0.181-0.95,0.544-1.313s0.8-0.544,1.313-0.544s0.95,0.182,1.313,0.544s0.544,0.8,0.544,1.313S8.176,7.45,7.813,7.813
	S7.013,8.357,6.5,8.357z M15.611,14.799c0.213,0.552,0.242,1.117,0.088,1.698c-0.194,0.744-0.625,1.311-1.292,1.697
	c-0.667,0.387-1.374,0.483-2.118,0.29c-0.745-0.193-1.311-0.624-1.698-1.292c-0.387-0.667-0.483-1.373-0.29-2.117
	c0.155-0.581,0.459-1.057,0.914-1.43c0.455-0.372,0.972-0.582,1.553-0.631l1.465-5.542c0.067-0.251,0.212-0.443,0.435-0.573
	c0.223-0.131,0.455-0.162,0.697-0.094c0.241,0.068,0.428,0.21,0.559,0.428c0.131,0.218,0.166,0.453,0.108,0.704l-1.465,5.542
	C15.051,13.808,15.398,14.247,15.611,14.799z M22.285,14.856c-0.512,0-0.949-0.181-1.312-0.543
	c-0.363-0.363-0.544-0.801-0.544-1.313s0.181-0.95,0.544-1.313s0.801-0.544,1.312-0.544c0.514,0,0.951,0.182,1.313,0.544
	s0.544,0.8,0.544,1.313s-0.182,0.95-0.544,1.313C23.236,14.676,22.799,14.856,22.285,14.856z M13,5.571
	c-0.513,0-0.95-0.181-1.313-0.544s-0.544-0.8-0.544-1.313s0.181-0.951,0.544-1.313c0.363-0.362,0.8-0.544,1.313-0.544
	s0.95,0.182,1.313,0.544c0.363,0.363,0.544,0.801,0.544,1.313s-0.182,0.95-0.544,1.313S13.513,5.571,13,5.571z M19.5,8.357
	c-0.513,0-0.95-0.181-1.312-0.544c-0.363-0.363-0.545-0.8-0.545-1.313s0.182-0.95,0.545-1.313c0.362-0.363,0.8-0.544,1.312-0.544
	s0.95,0.182,1.312,0.544c0.363,0.363,0.545,0.8,0.545,1.313s-0.182,0.95-0.545,1.313C20.45,8.176,20.013,8.357,19.5,8.357z
	 M24.97,7.951c-0.687-1.605-1.61-2.989-2.771-4.149c-1.161-1.161-2.545-2.084-4.15-2.771C16.443,0.343,14.76,0,13,0
	c-1.761,0-3.444,0.343-5.049,1.03C6.345,1.717,4.962,2.641,3.801,3.801S1.717,6.345,1.03,7.951C0.343,9.557,0,11.24,0,13
	c0,2.534,0.682,4.87,2.046,7.008c0.184,0.28,0.445,0.421,0.783,0.421h20.342c0.339,0,0.6-0.141,0.783-0.421
	C25.318,17.86,26,15.524,26,13C26,11.24,25.656,9.557,24.97,7.951z"/>
</svg>
