<?xml version="1.0" encoding="utf-8"?>
<!-- Generator: Adobe Illustrator 16.0.0, SVG Export Plug-In . SVG Version: 6.00 Build 0)  -->
<!DOCTYPE svg PUBLIC "-//W3C//DTD SVG 1.1//EN" "http://www.w3.org/Graphics/SVG/1.1/DTD/svg11.dtd">
<svg version="1.1" id="Layer_1" xmlns="http://www.w3.org/2000/svg" xmlns:xlink="http://www.w3.org/1999/xlink" x="0px" y="0px"
	 width="37.002px" height="26.908px" viewBox="0 0 37.002 26.908" enable-background="new 0 0 37.002 26.908" xml:space="preserve">
<g>
	<polygon points="25.995,12.235 28.999,12.235 28.999,9.219 32.972,9.219 32.972,6.159 16.227,0 0,6.041 0,9.219 4.004,9.219 
		4.004,25.24 6.976,25.24 6.976,10.229 25.995,10.229 	"/>
	<rect x="9.98" y="14.243" width="5.019" height="4.973"/>
	<rect x="9.98" y="20.243" width="5.019" height="4.973"/>
	<path d="M24.018,17.242h-2.948l-3.027,3.9l-0.053,3.73c0,0,2.487,4.141,4.856,0.351h8.351c0,0,1.717,3.79,4.264,0h1.542v-2.999
		H24.018V17.242z M33.107,23.215c0.703,0,1.273,0.569,1.273,1.272c0,0.704-0.57,1.273-1.273,1.273s-1.273-0.569-1.273-1.273
		C31.834,23.784,32.404,23.215,33.107,23.215z M20.316,25.761c-0.703,0-1.273-0.569-1.273-1.273c0-0.703,0.57-1.272,1.273-1.272
		c0.704,0,1.274,0.569,1.274,1.272C21.59,25.191,21.02,25.761,20.316,25.761z M23.01,21.497h-3.494l1.658-2.31h1.836V21.497z"/>
	<rect x="26.001" y="13.259" width="11.001" height="7.96"/>
</g>
</svg>
