<?xml version="1.0" encoding="utf-8"?>
<!-- Generator: Adobe Illustrator 16.0.0, SVG Export Plug-In . SVG Version: 6.00 Build 0)  -->
<!DOCTYPE svg PUBLIC "-//W3C//DTD SVG 1.1//EN" "http://www.w3.org/Graphics/SVG/1.1/DTD/svg11.dtd">
<svg version="1.1" id="Layer_1" xmlns="http://www.w3.org/2000/svg" xmlns:xlink="http://www.w3.org/1999/xlink" x="0px" y="0px"
	 width="51.521px" height="32.133px" viewBox="0 0 51.521 32.133" enable-background="new 0 0 51.521 32.133" xml:space="preserve">
<g>
	<g>
		<path d="M8.684,0C7.102,0,5.745,0.229,4.614,0.686s-2.03,1.14-2.698,2.048S0.762,4.711,0.457,5.941S0,8.613,0,10.266v11.426
			c0,1.652,0.152,3.103,0.457,4.351s0.791,2.335,1.459,3.261s1.567,1.629,2.698,2.109s2.487,0.721,4.069,0.721
			c1.57,0,2.921-0.243,4.052-0.729s2.03-1.195,2.698-2.127s1.157-2.021,1.468-3.27s0.466-2.687,0.466-4.315V10.266
			c0-3.328-0.68-5.871-2.039-7.629S11.754,0,8.684,0z M12.867,22.816c0,1.852-0.302,3.252-0.905,4.201s-1.696,1.424-3.278,1.424
			s-2.675-0.475-3.278-1.424S4.5,24.668,4.5,22.816V9.141c0-1.828,0.299-3.193,0.896-4.096S7.09,3.691,8.684,3.691
			s2.689,0.451,3.287,1.354s0.896,2.268,0.896,4.096V22.816z M25.805,0.316h-4.5v31.5H33.68v-3.375h-7.875V0.316z M43.646,0.316
			h-7.875v31.5h4.5V17.191h3.375c2.543,0,4.491-0.671,5.845-2.013s2.03-3.296,2.03-5.862C51.521,3.316,48.896,0.316,43.646,0.316z
			 M46.696,11.602c-0.217,0.598-0.574,1.058-1.072,1.38s-1.072,0.542-1.723,0.659s-1.485,0.176-2.505,0.176h-1.125V3.691h1.125
			c1.148,0,2.071,0.085,2.769,0.255s1.266,0.478,1.705,0.923s0.741,1.017,0.905,1.714s0.246,1.608,0.246,2.733
			C47.021,10.242,46.913,11.004,46.696,11.602z"/>
	</g>
</g>
</svg>
