<?xml version="1.0" encoding="iso-8859-1"?>
<!-- Generator: Adobe Illustrator 18.0.0, SVG Export Plug-In . SVG Version: 6.00 Build 0)  -->
<!DOCTYPE svg PUBLIC "-//W3C//DTD SVG 1.1//EN" "http://www.w3.org/Graphics/SVG/1.1/DTD/svg11.dtd">
<svg version="1.1" id="Capa_1" xmlns="http://www.w3.org/2000/svg" xmlns:xlink="http://www.w3.org/1999/xlink" x="0px" y="0px"
	 viewBox="0 0 305 305" style="enable-background:new 0 0 305 305;" xml:space="preserve">
<path d="M281.179,0H110.022c-1.989,0-3.896,0.79-5.304,2.197L18.518,88.399c-1.406,1.406-2.196,3.314-2.196,5.303V297.5
	c0,4.143,3.357,7.5,7.5,7.5h257.357c4.143,0,7.5-3.357,7.5-7.5V7.5C288.679,3.358,285.321,0,281.179,0z M214.018,108.161h22.199
	V33.647c0-2.761,2.238-5,5-5c2.762,0,5,2.239,5,5v79.514c0,2.761-2.238,5-5,5h-27.199c-2.762,0-5-2.239-5-5
	C209.018,110.4,211.257,108.161,214.018,108.161z M163.798,108.161h22.203V33.647c0-2.761,2.238-5,5-5c2.762,0,5,2.239,5,5v79.514
	c0,2.761-2.238,5-5,5h-27.203c-2.762,0-5-2.239-5-5C158.798,110.4,161.036,108.161,163.798,108.161z M113.579,108.161h22.203V33.647
	c0-2.761,2.238-5,5-5s5,2.239,5,5v79.514c0,2.761-2.238,5-5,5h-27.203c-2.762,0-5-2.239-5-5
	C108.579,110.4,110.817,108.161,113.579,108.161z M250.425,256.007H54.573v-96.531h195.852V256.007z"/>
<g>
</g>
<g>
</g>
<g>
</g>
<g>
</g>
<g>
</g>
<g>
</g>
<g>
</g>
<g>
</g>
<g>
</g>
<g>
</g>
<g>
</g>
<g>
</g>
<g>
</g>
<g>
</g>
<g>
</g>
</svg>
