<?xml version="1.0" encoding="utf-8"?>
<!-- Generator: Adobe Illustrator 16.0.0, SVG Export Plug-In . SVG Version: 6.00 Build 0)  -->
<!DOCTYPE svg PUBLIC "-//W3C//DTD SVG 1.1//EN" "http://www.w3.org/Graphics/SVG/1.1/DTD/svg11.dtd">
<svg version="1.1" id="Layer_1" xmlns="http://www.w3.org/2000/svg" xmlns:xlink="http://www.w3.org/1999/xlink" x="0px" y="0px"
	 width="37.002px" height="26.908px" viewBox="0 0 37.002 26.908" enable-background="new 0 0 37.002 26.908" xml:space="preserve">
<g>
	<rect x="17.99" y="12.884" width="11.693" height="7.682"/>
	<path d="M36.951,20.729l-2.949-4.552h-3.344v5.487H17.99v3.293h1.988c2.481,4.391,4.154,0,4.154,0h8.138
		c2.308,4.391,4.731-0.26,4.731-0.26L36.951,20.729z M22.271,26.066c-0.685,0-1.241-0.625-1.241-1.397s0.557-1.397,1.241-1.397
		c0.686,0,1.241,0.625,1.241,1.397S22.956,26.066,22.271,26.066z M31.633,21.664v-3.292h2.267l1.615,3.292H31.633z M34.734,26.066
		c-0.685,0-1.24-0.625-1.24-1.397s0.556-1.397,1.24-1.397c0.686,0,1.241,0.625,1.241,1.397S35.42,26.066,34.734,26.066z"/>
	<polygon points="25.995,12.235 28.999,12.235 28.999,9.219 32.972,9.219 32.972,6.159 16.227,0 0,6.041 0,9.219 4.004,9.219 
		4.004,25.24 6.976,25.24 6.976,10.229 25.995,10.229 	"/>
	<rect x="9.98" y="14.243" width="5.019" height="4.973"/>
	<rect x="9.98" y="20.243" width="5.019" height="4.973"/>
</g>
</svg>
