<?xml version="1.0" ?><svg height="512" id="svg2" version="1.1" width="512" xmlns="http://www.w3.org/2000/svg" xmlns:cc="http://creativecommons.org/ns#" xmlns:dc="http://purl.org/dc/elements/1.1/" xmlns:inkscape="http://www.inkscape.org/namespaces/inkscape" xmlns:rdf="http://www.w3.org/1999/02/22-rdf-syntax-ns#" xmlns:sodipodi="http://sodipodi.sourceforge.net/DTD/sodipodi-0.dtd" xmlns:svg="http://www.w3.org/2000/svg"><defs id="defs4"/><g id="layer1" transform="translate(0,-540.36218)"><g id="g4305"><g id="g4345" transform="translate(28,-40.00001)"><g id="text2994" style="font-size:550px;font-style:normal;font-variant:normal;font-weight:normal;font-stretch:normal;text-align:start;line-height:125%;letter-spacing:0px;word-spacing:0px;writing-mode:lr-tb;text-anchor:start;fill:#222222;fill-opacity:1;stroke:none;font-family:Ubuntu;-inkscape-font-specification:Ubuntu"><g id="g3830" transform="translate(0,15.24359)"><g id="g3838"><g id="g3785"><g id="g3790"><path d="m 127.6875,394.75 -8.3125,100 273.25,0 -8.3125,-100 z m 22.03125,20 c 0.0729,-0.002 0.14584,-0.002 0.21875,0 0.16653,-0.008 0.33347,-0.008 0.5,0 l 170,0 c 2.64156,-0.0374 5.0625,2.35817 5.0625,5 0,2.64183 -2.42094,5.03736 -5.0625,5 l -170,0 c -2.61799,0.18817 -5.15558,-2.03825 -5.34375,-4.65625 -0.18817,-2.61799 2.00701,-5.15558 4.625,-5.34375 z m -2.125,25 0.21875,0 c 0.16653,-0.01 0.33347,-0.01 0.5,0 l 213,0 c 2.64156,-0.037 5.0625,2.3582 5.0625,5 0,2.6418 -2.42094,5.0374 -5.0625,5 l -213,0 c -2.61799,0.1882 -5.15558,-2.03825 -5.34375,-4.65625 -0.18817,-2.618 2.00701,-5.15555 4.625,-5.34375 z m -1.90625,25 0.21875,0 c 0.16653,-0.01 0.33347,-0.01 0.5,0 l 135,0 c 2.64156,-0.037 5.0625,2.3582 5.0625,5 0,2.6418 -2.42094,5.0374 -5.0625,5 l -135,0 c -2.61799,0.1882 -5.15558,-2.03825 -5.34375,-4.65625 -0.18817,-2.618 2.00701,-5.15555 4.625,-5.34375 z" id="rect3813" style="font-size:medium;font-style:normal;font-variant:normal;font-weight:normal;font-stretch:normal;text-indent:0;text-align:start;text-decoration:none;line-height:125%;letter-spacing:0;word-spacing:0;text-transform:none;direction:ltr;block-progression:tb;writing-mode:lr-tb;text-anchor:start;baseline-shift:baseline;color:#000000;fill:#cccccc;fill-opacity:1;fill-rule:nonzero;stroke:none;stroke-width:10;marker:none;visibility:visible;display:inline;overflow:visible;enable-background:accumulate;font-family:Ubuntu;-inkscape-font-specification:Ubuntu" transform="translate(-28,565.1186)"/><path d="m 106,114.5 0,60 -60,0 c -2.062471,9e-5 -4.313921,0.73775 -5.96875,1.96875 -1.654833,1.231 -3.031891,3.18089 -3.625,5.15625 l 0.03125,0 -15,50 C 21.160095,232.54957 20.999912,233.5347 21,234.5 l 0,30.21875 0,24.78125 0,5 0,32.8125 0,67.1875 c 2.49e-4,2.4918 1.175483,5.30053 2.9375,7.0625 1.761975,1.76197 4.570706,2.93725 7.0625,2.9375 l 74.53125,0 2.96875,-35.46875 0,-49.53125 c -0.006,-1.31856 0.53527,-2.63123 1.46875,-3.5625 l 5,-5 c 0.80678,-0.80597 1.89664,-1.32282 3.03125,-1.4375 0.16653,-0.008 0.33347,-0.008 0.5,0 l 275,0 c 1.30385,-0.006 2.60222,0.52264 3.53125,1.4375 l 5,5 c 0.93348,0.93127 1.47466,2.24394 1.46875,3.5625 l 0,49.53125 2.96875,35.46875 74.53125,0 c 2.49179,-2.5e-4 5.30053,-1.17553 7.0625,-2.9375 1.76197,-1.76197 2.93725,-4.57071 2.9375,-7.0625 l 0,-67.1875 0,-2.8125 -50,0 0,-20 50,0 0,-10 0,-5 0,-24.78125 0,-30.21875 c 9e-5,-0.9653 -0.1601,-1.95044 -0.4375,-2.875 l -15,-50 0.0312,0 c -0.59311,-1.97537 -1.97017,-3.92525 -3.625,-5.15625 C 470.31394,175.23776 468.06247,174.50009 466,174.5 l -60,0 0,-60 -15,0 0,64.28125 0,3.21875 c -0.005,2.61631 -1.08532,5.21466 -2.9375,7.0625 l -10,10 C 376.21466,200.91468 373.61631,201.99541 371,202 l -230,0 c -2.61631,-0.005 -5.21466,-1.08532 -7.0625,-2.9375 l -10,-10 C 122.08532,187.21466 121.00459,184.61631 121,182 l 0,-3.21875 0,-64.28125 z m 14.5625,205 -2.0625,2.0625 0,37.9375 275,0 0,-37.9375 -2.0625,-2.0625 z" id="rect3821" style="color:#000000;fill:#222222;fill-opacity:1;fill-rule:nonzero;stroke:none;stroke-width:4;marker:none;visibility:visible;display:inline;overflow:visible;enable-background:accumulate" transform="translate(-28,580.36219)"/><path d="m 113,582.1186 0,190 230,0 0,-190 z" id="rect3813-1" style="font-size:medium;font-style:normal;font-variant:normal;font-weight:normal;font-stretch:normal;text-indent:0;text-align:start;text-decoration:none;line-height:125%;letter-spacing:0;word-spacing:0;text-transform:none;direction:ltr;block-progression:tb;writing-mode:lr-tb;text-anchor:start;baseline-shift:baseline;color:#000000;fill:#cccccc;fill-opacity:1;fill-rule:nonzero;stroke:none;stroke-width:10;marker:none;visibility:visible;display:inline;overflow:visible;enable-background:accumulate;font-family:Ubuntu;-inkscape-font-specification:Ubuntu"/></g></g></g></g><g id="layer1-4" transform="translate(539.77941,-13.359245)"><g id="layer1-5" transform="translate(-573.14286,170.28574)"/></g></g></g></g></g></svg>