<?xml version="1.0" encoding="utf-8"?>
<!-- Generator: Adobe Illustrator 16.0.0, SVG Export Plug-In . SVG Version: 6.00 Build 0)  -->
<!DOCTYPE svg PUBLIC "-//W3C//DTD SVG 1.1//EN" "http://www.w3.org/Graphics/SVG/1.1/DTD/svg11.dtd">
<svg version="1.1" id="Capa_1" xmlns="http://www.w3.org/2000/svg" xmlns:xlink="http://www.w3.org/1999/xlink" x="0px" y="0px"
	 width="569.514px" height="569.515px" viewBox="0 0 569.514 569.515" enable-background="new 0 0 569.514 569.515"
	 xml:space="preserve">
<g>
	<g>
		<g>
			<path d="M343.379,448.496c0,4.766-3.861,8.619-8.629,8.619H112.459c-4.766,0-8.629-3.854-8.629-8.619V125.101
				c0-4.768,3.864-8.621,8.629-8.621h125.676c0.232-19.121,3.966-37.369,10.492-54.256H90.778
				c-18.867,0-34.176,15.304-34.176,34.184V535.33c0,18.881,15.306,34.186,34.176,34.186h265.619
				c18.869,0,34.175-15.305,34.175-34.186V274.67c-16.495-0.41-32.332-3.391-47.188-8.564v182.39H343.379L343.379,448.496z
				 M167.713,517.738c0,4.58-3.715,8.283-8.294,8.283h-58.921c-4.582,0-8.295-3.703-8.295-8.283v-14.58
				c0-4.58,3.713-8.285,8.295-8.285h58.919c4.58,0,8.295,3.705,8.295,8.285L167.713,517.738L167.713,517.738z M223.615,533.824
				c-12.924,0-23.376-10.463-23.376-23.365s10.453-23.387,23.376-23.387c12.895,0,23.376,10.482,23.376,23.387
				C246.991,523.361,236.51,533.824,223.615,533.824z M354.989,503.16v14.58c0,4.58-3.715,8.285-8.292,8.285h-58.923
				c-4.58,0-8.292-3.705-8.292-8.285v-14.58c0-4.58,3.712-8.283,8.292-8.283h58.923C351.274,494.873,354.989,498.58,354.989,503.16z
				"/>
			<path d="M394.544,0c-65.369,0-118.369,52.991-118.369,118.363c0,65.39,53,118.377,118.369,118.377
				c65.37,0,118.368-52.989,118.368-118.377C512.915,52.991,459.917,0,394.544,0z M409.778,161.717l-58.586-58.586
				c-7.768-7.767-7.77-20.354-0.002-28.123c7.768-7.768,20.354-7.766,28.122,0.002l58.586,58.586
				c7.767,7.766,7.77,20.353,0.001,28.121C430.133,169.484,417.545,169.483,409.778,161.717z"/>
		</g>
	</g>
</g>
</svg>
